<svg width="360" height="360" viewBox="0 0 360 360" fill="none" xmlns="http://www.w3.org/2000/svg">
<rect width="360" height="360" fill="#F5F5F5"/>
<g id="tiger 1" clip-path="url(#clip0_0_1)">
<g id="layer1">
<g id="g151013">
<path id="tail" fill-rule="evenodd" clip-rule="evenodd" d="M195.211 257.986C204.297 247.114 176.972 207.529 159.778 223.295C108.108 294.549 18.8604 176.574 80.1322 180C97.5 176.382 95.1249 151.806 74.2425 153.348C14.4821 157.809 26.352 201.819 62.3501 235.79C98.3481 269.759 158.47 293.689 195.211 257.986V257.986Z" fill="#FE7D00"/>
<path id="right ear" fill-rule="evenodd" clip-rule="evenodd" d="M335.901 62.3076L281.316 76.1061L227.151 91.4351L266.513 131.31L307.015 170.05L322.245 116.393L335.901 62.3076Z" fill="#F38000"/>
<path id="left ear" fill-rule="evenodd" clip-rule="evenodd" d="M87.8673 60.4304L142.453 74.2289L196.617 89.5578L157.256 129.433L116.754 168.173L101.524 114.516L87.8673 60.4304Z" fill="#F38000"/>
<path id="path31737-7-4-2-0" fill-rule="evenodd" clip-rule="evenodd" d="M313.006 183.132C313.006 241.013 268.222 287.935 212.978 287.935C157.733 287.935 112.949 241.013 112.949 183.132C112.949 125.25 157.733 78.3278 212.978 78.3278C268.222 78.3278 313.006 125.25 313.006 183.132Z" fill="#FE7D00"/>
<path id="path32047-7-8" fill-rule="evenodd" clip-rule="evenodd" d="M193.427 142.871C193.427 155.941 183.562 166.536 171.392 166.536C159.223 166.536 149.358 155.941 149.358 142.871C149.358 129.802 159.223 119.207 171.392 119.207C183.562 119.207 193.427 129.802 193.427 142.871Z" fill="white"/>
<path id="path32047-4-8-3" fill-rule="evenodd" clip-rule="evenodd" d="M278.395 144.123C278.395 157.192 268.53 167.787 256.361 167.787C244.191 167.787 234.326 157.192 234.326 144.123C234.326 131.053 244.191 120.459 256.361 120.459C268.53 120.459 278.395 131.053 278.395 144.123Z" fill="white"/>
<path id="path32047-4-9-9-8" fill-rule="evenodd" clip-rule="evenodd" d="M186.65 142.767C186.65 151.881 179.322 159.27 170.282 159.27C161.242 159.27 153.913 151.881 153.913 142.767C153.913 133.653 161.241 126.264 170.282 126.264C179.322 126.264 186.65 133.653 186.65 142.767Z" fill="black"/>
<path id="path32047-4-9-3-9-7" fill-rule="evenodd" clip-rule="evenodd" d="M272.895 143.974C272.895 153.088 265.567 160.477 256.526 160.477C247.486 160.477 240.158 153.088 240.158 143.974C240.158 134.86 247.486 127.471 256.526 127.471C265.567 127.471 272.895 134.86 272.895 143.974Z" fill="black"/>
<path id="path32469-2" fill-rule="evenodd" clip-rule="evenodd" d="M115.371 189.512C118.75 190.344 122.212 190.997 125.63 191.709C131.782 192.642 128.549 192.275 135.336 192.74C135.437 192.74 135.437 192.881 135.336 192.881C128.549 193.346 131.781 192.978 125.63 193.912C122.212 194.624 117.648 197.456 114.269 198.289C114.214 199.386 112.599 188.776 113.168 187.799L115.371 189.512Z" fill="black"/>
<path id="path32471-6" fill-rule="evenodd" clip-rule="evenodd" d="M119.031 208.977C123.827 210.486 128.872 211.044 133.852 211.605C141.945 211.27 149.59 208.722 157.26 206.412C157.356 206.383 157.397 206.518 157.301 206.547C154.082 207.516 150.897 208.603 147.643 209.454C142.816 210.717 138.724 211.29 133.878 212.084C128.928 213.179 123.125 214.697 118.244 216.047C118.71 218.206 115.416 211.906 116.04 208.198L119.031 208.977Z" fill="black"/>
<path id="path32475-9" fill-rule="evenodd" clip-rule="evenodd" d="M157.053 267.975C157.019 268.016 156.897 268.105 156.95 268.098C158.747 267.866 161.433 265.999 163.012 265.161C166.736 262.784 170.297 260.161 173.656 257.303C175.468 255.871 177.516 258.406 175.704 259.838C172.12 262.468 168.733 265.353 165.503 268.4C164.274 269.662 164.718 269.581 163.449 270.8C163.448 270.8 163.493 271.875 163.288 272.03C162.978 272.265 163.103 273.692 162.774 273.9C160.75 272.892 157.716 270.272 155.637 268.91L157.053 267.975Z" fill="black"/>
<path id="path32707-9" fill-rule="evenodd" clip-rule="evenodd" d="M254.121 273.32C254.121 285.874 235.801 296.051 213.2 296.051C190.599 296.051 172.279 285.874 172.279 273.32C172.279 260.766 190.599 250.589 213.2 250.589C235.801 250.589 254.121 260.766 254.121 273.32Z" fill="url(#paint0_radial_0_1)"/>
<path id="path32477-3" fill-rule="evenodd" clip-rule="evenodd" d="M180.662 279.753C183.679 275.796 185.755 271.261 188.038 266.875C188.683 265.746 189.329 264.616 189.974 263.487C190.481 262.478 191.923 263.188 191.416 264.196L189.895 267.686C188.584 271.194 186.625 282.358 187.542 286.152C184.92 284.804 178.471 281.653 178.705 280.61L180.662 279.753Z" fill="black"/>
<path id="path32481-8" fill-rule="evenodd" clip-rule="evenodd" d="M228.625 281.295C228.556 276.556 229.268 277.014 228.305 272.362C227.585 268.885 226.299 265.079 225.245 261.706C224.592 259.846 223.94 257.986 223.288 256.127C223.254 256.032 223.389 255.986 223.422 256.08L225.381 261.665C225.952 263.491 226.544 265.311 227.093 267.144C228.62 272.239 230.22 278.513 233.947 282.597C234.339 283.027 237.244 284.225 237.712 284.572C237.439 285.254 229.443 286.964 228.625 286.744L228.625 281.295Z" fill="black"/>
<path id="path32483-1" fill-rule="evenodd" clip-rule="evenodd" d="M116.252 163.387C118.181 164.753 120.628 165.271 122.858 165.948C125.799 166.841 126.967 167.231 129.982 168.201C134.272 169.577 138.636 170.694 143.006 171.784C143.54 171.928 143.334 172.675 142.8 172.53C138.491 171.271 134.171 170.027 129.666 169.661C124.673 169.142 118.565 170.604 113.574 171.336C112.654 166.083 115.714 161.925 114.836 161.83L116.252 163.387Z" fill="black"/>
<path id="path32487-0" fill-rule="evenodd" clip-rule="evenodd" d="M120.997 141.62C123.633 143.831 128.214 147.136 131.357 148.519C134.417 149.544 132.896 149.117 135.915 149.819C138.495 150.594 137.388 154.203 134.808 153.429C131.751 152.308 133.317 152.861 130.107 151.775C126.588 150.667 121.806 150.499 118.114 150.126C117.537 151.196 119.455 144.475 120.997 141.62L120.997 141.62Z" fill="black"/>
<path id="path32489-3" fill-rule="evenodd" clip-rule="evenodd" d="M131.434 122.646C134.129 124.287 137.706 127.766 140.531 129.173C143.037 130.355 141.348 133.861 138.842 132.679C136.41 131.605 129.125 131.171 126.411 131.454C126.131 131.229 129.424 123.411 131.434 122.646L131.434 122.646Z" fill="black"/>
<path id="path32491-3" fill-rule="evenodd" clip-rule="evenodd" d="M149.553 102.556C151.735 106.062 154.533 111.161 157.403 114.09C159.199 115.791 156.766 118.304 154.97 116.602C152.228 114.199 146.632 109.651 142.914 108.904C142.235 108.728 148.193 102.04 149.553 102.556V102.556Z" fill="black"/>
<path id="path32493-8" fill-rule="evenodd" clip-rule="evenodd" d="M168.259 89.3256C170.66 93.961 174.051 100.172 176.937 104.522C177.671 105.496 176.278 106.524 175.543 105.549C172.237 101.683 164.638 96.6659 159.742 94.7929C159.623 93.7488 167.982 88.8247 168.259 89.3256H168.259Z" fill="black"/>
<path id="path32495-4" fill-rule="evenodd" clip-rule="evenodd" d="M247.421 88.968C245.412 91.5849 243.363 94.3324 241.803 97.2403C239.864 100.855 238.339 105.116 236.823 108.884C235.925 111.115 235.01 113.339 234.104 115.567C231.649 121.491 229.227 127.428 226.844 133.381C226.807 133.473 226.674 133.421 226.711 133.329C229.095 127.376 231.517 121.439 233.972 115.514C234.792 113.498 238.41 104.658 239.212 102.49C239.886 100.669 240.598 98.8529 241.079 96.973C241.881 93.8414 240.83 85.7394 240.766 82.5182C241.574 82.7788 248.249 84.2877 249.153 85.3874L247.421 88.968Z" fill="black"/>
<path id="path32497-8" fill-rule="evenodd" clip-rule="evenodd" d="M268.455 96.3875C264.634 100.384 257.985 106.385 255.693 111.366C254.108 115.222 254.838 113.34 253.488 117.007C252.498 118.971 249.69 117.586 250.68 115.622C252.805 112.406 251.775 114.126 253.729 110.439C256.109 105.723 258.465 94.9184 258.663 89.5549C258.433 89.7231 269.122 94.5286 268.455 96.3875H268.455Z" fill="black"/>
<path id="path32499-0" fill-rule="evenodd" clip-rule="evenodd" d="M291.747 118.668C289.204 119.571 283.793 120.979 282.203 123.016C280.028 125.501 276.475 122.459 278.649 119.974C280.556 118.04 283.137 111.988 284.174 109.464C285.198 110.193 290.903 118.021 291.747 118.668V118.668Z" fill="black"/>
<path id="path32501-1" fill-rule="evenodd" clip-rule="evenodd" d="M304.15 146.715C303.861 146.664 303.577 146.564 303.284 146.561C298.055 146.505 292.566 147.893 287.558 149.209C286.286 149.515 285.848 147.737 287.12 147.431C290.09 146.78 291.477 146.603 294.326 145.457C297.339 144.245 300.042 139.2 302.574 137.209C303.399 136.799 306.868 145.998 307.14 148.428L304.15 146.715Z" fill="black"/>
<path id="path32503-5" fill-rule="evenodd" clip-rule="evenodd" d="M308.217 174.762C303.058 173.422 298.422 171.913 293.14 172.157C292.242 172.249 291.345 172.342 290.447 172.435C288.177 172.556 288.003 169.381 290.273 169.259C291.208 169.253 292.143 169.248 293.078 169.241C297.415 169.264 301.861 167.044 305.947 165.394C306.396 165.213 310.715 163.971 311.132 163.727C312.831 168.279 312.525 178.85 312.938 176.941L308.217 174.762Z" fill="black"/>
<path id="path32505-4" fill-rule="evenodd" clip-rule="evenodd" d="M307.132 198.831C300.792 198.035 297.998 198.149 291.631 198.456C287.12 198.688 282.606 198.831 278.093 199.028C277.377 199.029 277.377 198.027 278.093 198.027C282.589 198.218 287.094 198.393 291.574 197.791C297.138 197.115 308.581 193.886 312.9 189.949C313.354 196.511 310.698 202.636 311.382 200.388L307.132 198.831Z" fill="black"/>
<path id="path32507-1" fill-rule="evenodd" clip-rule="evenodd" d="M296.559 224.397C290.389 222.17 289.587 222.064 283.1 221.315C279.111 220.95 275.113 220.975 271.115 221.088C269.533 220.939 269.746 218.725 271.329 218.874C275.232 219.731 279.149 220.524 283.134 220.917C284.707 221.001 286.277 221.159 287.852 221.17C292.786 221.204 302.335 220.801 306.947 219.033C308.333 218.871 302.574 229.13 302.855 229.379L296.559 224.397Z" fill="black"/>
<path id="path32509-3" fill-rule="evenodd" clip-rule="evenodd" d="M287.025 250.902C286.587 250.758 285.346 249.624 285.334 249.619C283.752 248.926 284.513 249.045 282.962 248.287C280.101 246.89 278.662 246.379 275.609 245.148C269.113 242.898 272.426 243.936 265.667 242.046C265.57 242.019 265.609 241.883 265.706 241.91C272.464 243.8 269.081 243.023 275.852 244.261C279.673 244.806 280.221 244.929 283.875 245.294C285.902 245.497 291.206 246.131 293.164 245.388C294.125 245.768 289.05 251.507 288.757 251.057L287.025 250.902Z" fill="black"/>
<path id="path32513-7" fill-rule="evenodd" clip-rule="evenodd" d="M129.152 232.978C132.132 234.043 135.403 233.401 138.461 233.061C141.887 232.679 143.717 232.441 147.227 232.006C148.851 231.664 150.476 231.323 152.1 230.981C152.198 230.958 152.231 231.095 152.133 231.118C150.527 231.537 148.921 231.956 147.315 232.375C141.235 234.507 135.332 237.47 129.31 239.756C129.59 240.76 123.994 233.462 125.375 232.823L129.152 232.978Z" fill="black"/>
<path id="path32515-3" fill-rule="evenodd" clip-rule="evenodd" d="M139.161 253.583C139.653 253.507 143.466 253.185 143.944 253.044C145.708 252.522 147.959 251.358 149.495 250.545C153.845 248.243 157.432 245.918 161.404 243.034C162.564 242.127 163.724 241.221 164.884 240.314C165.377 239.979 165.855 240.669 165.362 241.003C164.092 241.747 162.822 242.491 161.551 243.234C155.396 247.627 149.855 253.61 145.677 259.967C144.381 260.918 139.93 254.691 139.161 253.583L139.161 253.583Z" fill="black"/>
<path id="path32517-5" fill-rule="evenodd" clip-rule="evenodd" d="M264.275 269.026C261.509 263.527 258.931 260.832 255.154 255.991C251.748 252.165 248.482 248.242 245.347 244.198C245.267 244.094 245.416 243.982 245.496 244.086C248.589 248.153 251.775 252.14 255.384 255.782C259.898 259.858 266.13 264.946 271.697 267.6C271.681 268.708 265.62 272.86 265.534 272.296L264.275 269.026Z" fill="black"/>
<path id="path32519-8" fill-rule="evenodd" clip-rule="evenodd" d="M187.711 85.2806C187.289 90.9011 188.588 96.8578 189.831 102.303C192.133 109.095 194.311 115.926 196.345 122.802C196.374 122.897 196.237 122.937 196.209 122.841C194.174 115.968 191.998 109.138 189.696 102.347C189.013 100.813 188.377 99.2579 187.647 97.7454C185.792 93.9018 181.749 88.4109 179.751 84.6443C178.359 84.0068 186.574 80.9719 188.183 81.5438L187.711 85.2806Z" fill="black"/>
<path id="path32521-5" fill-rule="evenodd" clip-rule="evenodd" d="M215.431 81.2803C213.637 85.9367 213.182 91.0462 212.32 95.9377C211.061 102.248 210.943 108.671 210.782 115.074C210.775 115.242 210.535 115.234 210.541 115.065C210.834 108.662 211.226 102.254 210.854 95.8438C210.633 90.9903 208.678 83.0232 206.716 78.4774C205.365 78.2678 215.841 77.4957 217.005 78.3217L215.431 81.2803Z" fill="black"/>
<path id="path32523-6" fill-rule="evenodd" clip-rule="evenodd" d="M211.274 283.53C213.376 278.364 213.834 274.689 214.314 269.195C214.314 268.782 214.904 268.782 214.904 269.195C215.384 274.689 217.573 282.101 219.675 287.266C219.807 288.533 210.449 288.014 210.173 287.422L211.274 283.53Z" fill="black"/>
<path id="path32525-9" fill-rule="evenodd" clip-rule="evenodd" d="M247.512 278.725C246.516 274.848 245.432 272.769 243.767 269.111C242.206 265.682 240.045 262.311 238.116 259.098C238.065 259.012 238.187 258.94 238.239 259.026C239.988 261.94 242.293 265.981 244.388 268.747C245.304 269.955 246.359 271.056 247.376 272.182C248.924 273.895 253.346 276.979 255.438 278.06C255.809 278.161 247.819 281.742 247.354 281.683L247.512 278.725Z" fill="black"/>
<path id="path32527-0" fill-rule="evenodd" clip-rule="evenodd" d="M237.029 203.814C239.443 224.219 227.639 221.951 215.661 214.823C202.857 223.758 192.934 221.995 194.294 203.814C194.747 197.751 203.861 192.806 215.661 192.806C227.463 192.806 236.315 197.776 237.029 203.814Z" fill="black"/>
<path id="path32530-8" d="M213.872 214.832C219.347 245.281 203.6 261.908 178.258 236.85" stroke="black" stroke-width="2.24697"/>
<path id="path32530-2-9" d="M217.08 215.346C211.606 245.795 227.353 262.422 252.694 237.364" stroke="black" stroke-width="2.24697"/>
<path id="rect32629-3" d="M216.26 211.055H214.686V220.708H216.26V211.055Z" fill="black"/>
<path id="path32631-6" fill-rule="evenodd" clip-rule="evenodd" d="M171.761 204.597C167.171 201.652 161.933 199.911 156.809 198.125C155.132 197.586 153.488 196.936 151.78 196.508C149.733 195.995 147.637 195.692 145.561 195.306C132.077 192.796 144.543 195.184 130.457 192.677C123.183 191.383 122.131 191.108 114.963 189.611C109.083 188.288 103.213 186.925 97.3371 185.588C97.2389 185.565 97.2709 185.428 97.369 185.45C103.244 186.788 109.113 188.15 114.992 189.473C122.741 191.092 130.494 192.497 138.293 193.854C142.809 194.64 147.283 195.651 151.81 196.37C153.55 196.647 155.31 196.782 157.061 196.988C161.801 197.44 160.448 197.252 164.795 197.873C167.08 198.2 169.474 198.781 171.802 198.638C172.209 198.614 172.605 198.503 173.007 198.435C177.411 199.307 176.165 205.468 171.761 204.596V204.597Z" fill="white"/>
<path id="path32633-0" fill-rule="evenodd" clip-rule="evenodd" d="M178.38 217.022C174.07 217.176 169.857 217.968 165.845 219.604C163.761 220.454 161.796 221.564 159.764 222.531C157.292 223.707 154.812 224.864 152.336 226.031C135.72 233.964 119.279 242.253 102.376 249.575C100.48 250.345 98.5843 251.115 96.6883 251.886C96.5953 251.924 96.5411 251.793 96.6341 251.756C98.5291 250.986 100.424 250.216 102.319 249.446C119.222 242.124 135.66 233.835 152.276 225.902C152.337 225.874 164.963 219.948 165.783 219.477C169.46 217.363 172.616 214.369 175.499 211.317C179.576 209.3 182.459 215.004 178.382 217.02L178.38 217.022Z" fill="white"/>
<path id="path32635-6" fill-rule="evenodd" clip-rule="evenodd" d="M191.8 230.632C184.835 232.641 180.036 237.464 174.995 242.356C173.144 244.152 171.295 245.95 169.446 247.746C157.293 259.491 145.645 271.726 133.597 283.575C129.648 287.795 124.879 291.239 121.009 295.537C120.186 296.45 119.51 297.484 118.761 298.458C117.713 299.365 116.416 297.899 117.464 296.992C118.536 296.389 119.678 295.895 120.679 295.182C125.3 291.892 129.186 287.113 133.497 283.475C145.544 271.626 157.193 259.39 169.346 247.644C171.195 245.847 173.044 244.049 174.895 242.254C178.409 238.843 180.558 237.104 183.356 233.215C184.178 232.072 184.792 230.795 185.488 229.573C186.929 227.043 186.591 227.829 187.217 226.097C190.457 222.892 195.04 227.425 191.8 230.631L191.8 230.632Z" fill="white"/>
<path id="path32637-9" fill-rule="evenodd" clip-rule="evenodd" d="M250.697 195.68C253.754 196.808 257.136 196.519 260.336 196.452C267.966 196.773 275.088 193.941 282.377 192.19C287.989 190.841 291.886 190.111 297.54 188.973C307.041 187.334 302.4 188.074 311.46 186.737C311.56 186.721 311.581 186.862 311.48 186.876C302.425 188.213 307.064 187.474 297.567 189.111C290.103 190.614 282.703 192.193 275.346 194.155C273.327 194.694 271.275 195.137 269.302 195.823C266.408 196.831 263.767 198.469 260.89 199.521C257.531 200.624 254.083 201.289 250.697 202.277C245.981 202.277 245.981 195.68 250.697 195.68L250.697 195.68Z" fill="white"/>
<path id="path32639-7" fill-rule="evenodd" clip-rule="evenodd" d="M254.357 210.72C254.66 210.833 254.956 210.963 255.265 211.058C257.622 211.783 256.051 211.116 259.035 212.081C262.239 213.117 263.004 213.655 266.418 214.692C268.114 215.207 269.843 215.606 271.555 216.063C283.552 218.28 295.467 220.898 307.517 222.826C313.142 223.224 310.422 223.068 315.677 223.307C316.896 223.491 316.633 225.197 315.414 225.013C310.314 223.69 312.954 224.373 307.495 222.965C295.444 221.037 283.529 218.419 271.53 216.201C265.844 215.67 259.825 215.097 254.358 217.167C249.749 217.167 249.749 210.72 254.358 210.72L254.357 210.72Z" fill="white"/>
<path id="path32641-8" fill-rule="evenodd" clip-rule="evenodd" d="M248.077 222.9C249.701 225.37 251.926 227.386 254.027 229.446C255.123 230.52 256.154 231.664 257.316 232.667C258.693 233.855 260.193 234.894 261.632 236.007C273.532 244.462 284.883 253.631 296.703 262.197C296.785 262.256 296.701 262.369 296.619 262.311C284.801 253.745 273.449 244.577 261.55 236.123C260.012 235.151 258.528 234.088 256.936 233.206C255.597 232.465 254.167 231.897 252.773 231.264C250.089 230.044 247.362 228.809 244.429 228.314C240.559 225.762 244.207 220.349 248.077 222.901L248.077 222.9Z" fill="white"/>
<path id="path32652-9" fill-rule="evenodd" clip-rule="evenodd" d="M214.618 299.084C209.699 315.468 192.429 303.166 196.07 300.977C193.945 302.173 195.681 311.005 185.161 309.511C175.468 310.813 176.795 303.098 172.992 302.534C167.188 307.912 155.074 307.16 155.074 299.395C155.074 290.883 169.219 270.332 184.215 270.332C199.213 270.332 216.56 290.792 214.617 299.085L214.618 299.084Z" fill="url(#paint1_radial_0_1)"/>
<path id="path32763-4" fill-rule="evenodd" clip-rule="evenodd" d="M70.5035 180.639C71.4055 178.256 73.8672 172.422 73.8735 169.905C73.632 166.914 72.8403 165.329 71.1322 162.982C70.4291 162.273 69.6493 161.645 68.8854 161.003C67.0664 159.207 69.6333 156.662 71.4523 158.458C72.2132 159.347 73.0561 160.157 73.7611 161.093C74.0425 161.474 74.3566 161.834 74.6055 162.236C76.0044 164.499 76.2939 167.206 76.4884 169.79C76.7154 172.345 77.4827 177.551 78.4041 179.979C78.1879 179.623 70.7232 180.543 70.5034 180.639L70.5035 180.639Z" fill="black"/>
<path id="path32765-1" fill-rule="evenodd" clip-rule="evenodd" d="M63.8163 183.791C61.4229 181.014 59.2879 178.914 56.0324 177.262C54.8899 176.621 55.8057 175.023 56.9482 175.664C60.1045 177.607 65.2649 180.505 68.9804 181.093C67.8954 181.531 64.7191 183.425 63.8164 183.791H63.8163Z" fill="black"/>
<path id="path32767-5" fill-rule="evenodd" clip-rule="evenodd" d="M60.2919 200.328C58.4672 199.716 54.7092 198.853 52.7715 198.901C51.1108 198.943 48.7669 199.416 47.1658 199.694C43.6328 200.854 45.3441 200.237 42.0279 201.534C41.1379 201.814 40.7382 200.569 41.6282 200.289C45.1227 199.448 43.3379 199.899 46.9809 198.929C50.8297 197.771 55.5223 196.03 59.4018 194.994C59.4332 197.329 60.3686 200.182 60.2921 200.328L60.2919 200.328Z" fill="black"/>
<path id="path32769-6" fill-rule="evenodd" clip-rule="evenodd" d="M64.8103 215.033C64.5048 215.184 64.2099 215.358 63.8938 215.486C63.7044 215.563 63.4941 215.576 63.3012 215.644C61.8769 216.139 60.658 216.902 59.4936 217.836C56.9418 219.732 55.4769 222.436 54.1558 225.229C53.3632 226.686 51.2796 225.577 52.0722 224.12C53.8262 221.279 55.4223 218.349 57.4346 215.671C58.7306 214.32 58.2568 214.756 59.5618 213.602C60.2022 213.036 60.2287 213.065 60.7166 212.34C60.7543 212.285 63.3101 208.02 63.2437 208.034C63.7821 209.437 65.2086 210.68 66.7581 214.207L64.8103 215.033Z" fill="black"/>
<path id="path32771-6" fill-rule="evenodd" clip-rule="evenodd" d="M72.1527 224.062C70.064 226.027 70.1851 227.052 69.3138 229.687C68.8484 231.223 68.5933 232.791 68.4581 234.384C68.0139 236.8 64.5593 236.179 65.0037 233.763C65.464 232.081 65.948 230.399 66.6296 228.789C67.1606 227.284 67.6751 225.803 68.0807 224.26C68.2547 223.598 68.5665 222.55 68.61 221.816C68.6168 221.687 69.5585 218.315 69.5319 218.188C68.9991 216.822 72.7377 222.209 73.6554 223.126L72.1527 224.062Z" fill="black"/>
<path id="path32773-6" fill-rule="evenodd" clip-rule="evenodd" d="M87.2216 234.968C86.5986 235.069 82.0969 235.903 81.4801 235.928C79.5927 236.005 77.8084 236.992 76.2293 237.911C75.0991 238.667 74.0746 239.501 73.1344 240.474C71.5312 241.932 69.4467 239.689 71.0498 238.231C72.2601 237.238 73.4945 236.286 74.8579 235.501C75.8469 234.972 76.8257 234.425 77.8231 233.911C79.0936 233.257 80.4601 232.711 81.6419 231.899C81.7275 231.84 81.83 230.968 81.8965 230.889C85.2844 233.485 87.0764 234.832 87.2219 234.968L87.2216 234.968Z" fill="black"/>
<path id="path32775-6" fill-rule="evenodd" clip-rule="evenodd" d="M99.3309 241.672C98.6044 243.872 96.9244 246.513 96.2442 248.728C95.4652 251.146 95.0974 253.66 94.6875 256.157C94.0774 258.395 90.8775 257.542 91.4875 255.304C92.3893 252.983 93.1752 250.624 93.63 248.171C93.818 246.701 94.1315 244.598 93.9795 243.117C93.9501 242.832 93.8254 239.194 93.7249 238.92C92.9406 238.529 98.0847 241.068 99.3309 241.672L99.3309 241.672Z" fill="black"/>
<path id="path32777-6" fill-rule="evenodd" clip-rule="evenodd" d="M115.371 248.957C114.275 251.646 114.19 254.611 114.017 257.467C113.923 259.598 113.975 261.726 114.059 263.855C114.059 265.319 111.968 265.319 111.968 263.855C112.052 261.726 112.104 259.598 112.01 257.467C111.837 254.611 111.139 247.903 110.044 245.214C110.939 245.394 116.615 246.071 116.206 246.04L115.371 248.957Z" fill="black"/>
<path id="path32779-7" fill-rule="evenodd" clip-rule="evenodd" d="M128.339 245.426C128.207 249.551 128.718 257.086 130.017 260.973C131.088 263.535 130.546 262.313 131.633 264.645C132.144 266.242 129.862 266.957 129.351 265.36C128.877 262.81 129.142 264.137 128.545 261.383C127.638 257.538 124.949 249.115 122.194 246.129C122.42 246.203 128.635 245.054 128.339 245.426H128.339Z" fill="black"/>
<path id="path32652-2" fill-rule="evenodd" clip-rule="evenodd" d="M217.645 297.832C222.564 314.216 239.834 301.914 236.193 299.725C238.318 300.922 236.582 309.754 247.102 308.259C256.795 309.561 255.468 301.847 259.271 301.282C265.075 306.661 277.189 305.909 277.189 298.144C277.189 289.632 263.044 269.08 248.048 269.08C233.05 269.08 215.703 289.54 217.646 297.833L217.645 297.832Z" fill="url(#paint2_radial_0_1)"/>
</g>
</g>
</g>
<defs>
<radialGradient id="paint0_radial_0_1" cx="0" cy="0" r="1" gradientUnits="userSpaceOnUse" gradientTransform="translate(213.206 273.342) scale(40.9212 22.7315)">
<stop stop-color="white"/>
<stop offset="1" stop-color="#FE7D00" stop-opacity="0"/>
</radialGradient>
<radialGradient id="paint1_radial_0_1" cx="0" cy="0" r="1" gradientUnits="userSpaceOnUse" gradientTransform="translate(183.601 246.481) rotate(113.454) scale(36.5057 45.6375)">
<stop/>
<stop offset="1" stop-color="#FE7D00"/>
</radialGradient>
<radialGradient id="paint2_radial_0_1" cx="0" cy="0" r="1" gradientUnits="userSpaceOnUse" gradientTransform="translate(248.707 245.251) rotate(66.5462) scale(36.5057 45.6376)">
<stop/>
<stop offset="1" stop-color="#FE7D00"/>
</radialGradient>
<clipPath id="clip0_0_1">
<rect width="360" height="360" fill="white"/>
</clipPath>
</defs>
</svg>
